# xmcd CD database file
#
# Track frame offsets:
#	150
#	17484
#	36742
#	55948
#	72301
#	87226
#	103472
#	116606
#	134691
#	162936
#	180888
#	197247
#	222767
#	241394
#	260583
#
# Disc length: 3712 seconds
#
# Revision: 0
# Processed by: cddbd v1.5.2PL0 Copyright (c) Steve Scherf et al.
# Submitted via: CDex 1.77
#
DISCID=df0e7e0f
DTITLE=Renzo Arbore - Il Clarinetto
DYEAR=2012
DGENRE=Jazz
TTITLE0=Il Clarinetto
TTITLE1=Sfigato Mambo
TTITLE2=Dino De Laurentis
TTITLE3=Pero? Quanno Te Dico Vattenne
TTITLE4=Tu Vecchia Mutanda, Tu
TTITLE5=Sud
TTITLE6=Si? La Vita E' Tutta Un Quiz
TTITLE7=Ma Che Ce Azzecco Io Cu' Stu Country
TTITLE8=Smorza 'E Llights
TTITLE9=Rocchenrollo
TTITLE10=Vengo Dopo Il Tiggi?
TTITLE11=Spadolini Nella Jungla
TTITLE12=Malinconico Rock
TTITLE13=Tango Delle Palle
TTITLE14=Io Faccio 'O Show
EXTD=YEAR: 2012
EXTT0=
EXTT1=
EXTT2=
EXTT3=
EXTT4=
EXTT5=
EXTT6=
EXTT7=
EXTT8=
EXTT9=
EXTT10=
EXTT11=
EXTT12=
EXTT13=
EXTT14=
PLAYORDER=
